<svg xmlns="http://www.w3.org/2000/svg" version="1.1" width="1024" height="836">
<rect x="0" y="0" width="1024" height="836" fill="#494644" />
<g transform="scale(4.000000) translate(0.5 0.5)">
<polygon fill="#ffe3a7" fill-opacity="0.501961" points="66,99 188,146 71,224" />
<polygon fill="#050915" fill-opacity="0.501961" points="-16,102 81,142 111,-16" />
<polygon fill="#080c1a" fill-opacity="0.501961" points="258,146 98,61 256,-16" />
<polygon fill="#e2ffff" fill-opacity="0.501961" points="8,224 98,190 213,218" />
<polygon fill="#d4b88e" fill-opacity="0.501961" points="172,179 39,163 148,98" />
<polygon fill="#000002" fill-opacity="0.501961" points="221,209 180,113 166,208" />
<polygon fill="#0b030a" fill-opacity="0.501961" points="38,210 35,173 100,187" />
<polygon fill="#cd8e4f" fill-opacity="0.501961" points="122,41 97,43 110,130" />
<polygon fill="#000009" fill-opacity="0.501961" points="22,148 -16,118 10,-16" />
<polygon fill="#d7a253" fill-opacity="0.501961" points="63,183 56,125 140,192" />
<polygon fill="#99987f" fill-opacity="0.501961" points="165,54 209,44 166,81" />
<polygon fill="#bacade" fill-opacity="0.501961" points="91,152 86,114 152,121" />
<polygon fill="#90a194" fill-opacity="0.501961" points="34,42 50,85 55,47" />
<polygon fill="#5d677d" fill-opacity="0.501961" points="271,137 181,128 262,217" />
<polygon fill="#402c29" fill-opacity="0.501961" points="100,154 139,157 153,140" />
<polygon fill="#0f181e" fill-opacity="0.501961" points="-16,46 175,41 67,11" />
<polygon fill="#0b0c1c" fill-opacity="0.501961" points="219,138 211,38 169,115" />
<polygon fill="#adb4b2" fill-opacity="0.501961" points="40,129 38,156 21,136" />
<polygon fill="#3f2b26" fill-opacity="0.501961" points="101,183 62,189 117,197" />
<polygon fill="#6b7685" fill-opacity="0.501961" points="37,183 -16,192 8,135" />
<polygon fill="#050003" fill-opacity="0.501961" points="136,50 128,106 170,81" />
<polygon fill="#0c0910" fill-opacity="0.501961" points="-11,123 79,62 112,88" />
<polygon fill="#85705e" fill-opacity="0.501961" points="119,93 69,97 57,136" />
<polygon fill="#dcf3fb" fill-opacity="0.501961" points="157,202 141,224 95,200" />
<polygon fill="#040916" fill-opacity="0.501961" points="55,200 44,159 3,129" />
<polygon fill="#706258" fill-opacity="0.501961" points="144,137 169,139 178,63" />
<polygon fill="#798374" fill-opacity="0.501961" points="64,-3 35,-16 40,44" />
<polygon fill="#f3bd64" fill-opacity="0.501961" points="116,168 172,139 166,178" />
<polygon fill="#3f4f55" fill-opacity="0.501961" points="227,33 241,-16 49,4" />
<polygon fill="#0c1522" fill-opacity="0.501961" points="159,0 184,18 115,63" />
<polygon fill="#ccd3d9" fill-opacity="0.501961" points="141,147 101,119 151,118" />
<polygon fill="#b47242" fill-opacity="0.501961" points="90,64 133,62 117,91" />
<polygon fill="#1b0b08" fill-opacity="0.501961" points="201,186 158,197 119,177" />
<polygon fill="#f1dfab" fill-opacity="0.501961" points="67,171 55,137 76,143" />
<polygon fill="#616a84" fill-opacity="0.501961" points="219,53 212,66 267,65" />
<polygon fill="#5d564c" fill-opacity="0.501961" points="99,152 109,155 108,117" />
<polygon fill="#f8ca85" fill-opacity="0.501961" points="96,56 124,49 107,39" />
<polygon fill="#080000" fill-opacity="0.501961" points="87,55 102,67 121,54" />
<polygon fill="#36201b" fill-opacity="0.501961" points="83,129 87,153 79,158" />
<polygon fill="#060816" fill-opacity="0.501961" points="215,58 243,-9 271,57" />
<polygon fill="#bf833d" fill-opacity="0.501961" points="96,188 87,164 174,176" />
<polygon fill="#000000" fill-opacity="0.501961" points="45,112 57,153 46,156" />
<polygon fill="#707a71" fill-opacity="0.501961" points="107,-16 133,34 160,-12" />
<polygon fill="#131221" fill-opacity="0.501961" points="271,71 222,135 174,60" />
<polygon fill="#69584b" fill-opacity="0.501961" points="68,108 178,100 124,119" />
<polygon fill="#00040e" fill-opacity="0.501961" points="24,25 38,-16 34,52" />
<polygon fill="#0f0400" fill-opacity="0.501961" points="97,41 135,42 103,9" />
<polygon fill="#9b9e90" fill-opacity="0.501961" points="226,10 234,23 219,22" />
<polygon fill="#1a1924" fill-opacity="0.501961" points="216,213 207,130 152,193" />
<polygon fill="#889889" fill-opacity="0.501961" points="17,61 12,48 34,43" />
<polygon fill="#141621" fill-opacity="0.501961" points="14,139 -16,40 76,95" />
<polygon fill="#676b73" fill-opacity="0.501961" points="116,144 124,129 134,151" />
<polygon fill="#696f66" fill-opacity="0.501961" points="148,50 202,54 168,71" />
<polygon fill="#e7d293" fill-opacity="0.501961" points="94,160 122,173 169,153" />
<polygon fill="#03070d" fill-opacity="0.501961" points="197,4 189,62 182,39" />
<polygon fill="#74655d" fill-opacity="0.501961" points="128,183 112,194 172,206" />
<polygon fill="#643314" fill-opacity="0.501961" points="110,93 127,108 136,51" />
<polygon fill="#5b6663" fill-opacity="0.501961" points="42,76 40,44 83,54" />
<polygon fill="#372f30" fill-opacity="0.501961" points="47,214 74,184 58,163" />
<polygon fill="#e2ebfa" fill-opacity="0.501961" points="121,149 107,148 113,129" />
<polygon fill="#636973" fill-opacity="0.501961" points="212,134 271,134 212,187" />
<polygon fill="#aa5f2b" fill-opacity="0.501961" points="159,183 176,137 174,168" />
<polygon fill="#5a4a39" fill-opacity="0.501961" points="97,154 88,142 93,138" />
<polygon fill="#66584e" fill-opacity="0.501961" points="172,99 150,91 143,153" />
<polygon fill="#ffffff" fill-opacity="0.501961" points="89,127 101,140 86,135" />
<polygon fill="#67706d" fill-opacity="0.501961" points="62,33 69,40 93,35" />
<polygon fill="#ba9370" fill-opacity="0.501961" points="112,51 122,89 109,81" />
<polygon fill="#f6bf60" fill-opacity="0.501961" points="175,63 166,66 172,75" />
<polygon fill="#2e3b43" fill-opacity="0.501961" points="128,27 105,23 141,-10" />
<polygon fill="#f3fcff" fill-opacity="0.501961" points="135,134 128,131 132,151" />
<polygon fill="#1b0000" fill-opacity="0.501961" points="218,14 211,-16 232,5" />
<polygon fill="#68797d" fill-opacity="0.501961" points="91,25 92,-2 107,-16" />
<polygon fill="#b3b5ba" fill-opacity="0.501961" points="98,192 136,189 117,184" />
<polygon fill="#8a9f93" fill-opacity="0.501961" points="6,34 -8,35 15,27" />
<polygon fill="#afc0c7" fill-opacity="0.501961" points="21,224 158,203 82,193" />
<polygon fill="#000000" fill-opacity="0.501961" points="14,-8 13,29 -2,30" />
<polygon fill="#553b29" fill-opacity="0.501961" points="136,139 144,154 130,158" />
<polygon fill="#78827d" fill-opacity="0.501961" points="203,44 171,55 204,58" />
<polygon fill="#e7c279" fill-opacity="0.501961" points="117,-15 116,6 126,4" />
<polygon fill="#15171f" fill-opacity="0.501961" points="60,129 64,43 34,129" />
<polygon fill="#0d0b13" fill-opacity="0.501961" points="188,148 180,136 171,180" />
<polygon fill="#1c191d" fill-opacity="0.501961" points="120,38 170,103 166,67" />
<polygon fill="#1d1f2b" fill-opacity="0.501961" points="183,46 172,122 241,134" />
<polygon fill="#6a737e" fill-opacity="0.501961" points="58,151 47,166 59,184" />
<polygon fill="#c1c0b8" fill-opacity="0.501961" points="94,119 149,118 150,135" />
<polygon fill="#eab762" fill-opacity="0.501961" points="119,103 107,90 106,98" />
<polygon fill="#716763" fill-opacity="0.501961" points="67,107 54,144 78,133" />
<polygon fill="#5c6662" fill-opacity="0.501961" points="55,49 51,88 42,76" />
<polygon fill="#0f090a" fill-opacity="0.501961" points="112,27 86,61 68,46" />
<polygon fill="#1e0c03" fill-opacity="0.501961" points="123,63 147,42 111,56" />
<polygon fill="#6d4021" fill-opacity="0.501961" points="141,180 114,186 130,187" />
<polygon fill="#030000" fill-opacity="0.501961" points="103,92 93,64 93,95" />
<polygon fill="#bfc0a9" fill-opacity="0.501961" points="146,12 135,14 131,21" />
<polygon fill="#869286" fill-opacity="0.501961" points="206,6 208,-16 214,14" />
<polygon fill="#3f332e" fill-opacity="0.501961" points="82,142 69,138 85,106" />
<polygon fill="#703f2a" fill-opacity="0.501961" points="126,77 109,75 134,54" />
<polygon fill="#6b6253" fill-opacity="0.501961" points="99,121 95,133 90,120" />
<polygon fill="#debd81" fill-opacity="0.501961" points="153,134 137,171 171,146" />
<polygon fill="#f9ffff" fill-opacity="0.501961" points="135,132 140,145 143,139" />
<polygon fill="#6f727d" fill-opacity="0.501961" points="99,66 88,60 81,68" />
</g>
</svg>